<?xml version="1.0" encoding="UTF-8"?>
<svg width="512px" height="512px" enable-background="new 0 0 128 128" version="1.1" viewBox="0 0 128 128" xml:space="preserve" xmlns="http://www.w3.org/2000/svg"><path d="m28 40h-8v8h8zm48-8h-8v8h8zm16 0h-8v8h8zm-32-16h-8v8h8zm16 0h-8v8h8zm16 0h-8v8h8zm-32 48h-8v8h8zm16 0h-8v8h8zm-16 16h-8v8h8zm32 0h-8v8h8zm-32 16h-8v8h8zm32 0h-8v8h8zm-32-48h-8v8h8zm16 0h-8v8h8zm16 0h-8v8h8zm-64 24h-8v8h8zm0 16h-8v8h8zm0 16h-8v8h8zm48-24h-8v8h8zm40-24h-8v-48c0-4.422-3.578-8-8-8h-56c-4.422 0-8 3.578-8 8v16h-24c-4.422 0-8 3.578-8 8v88c0 4.422 3.578 8 8 8h104c4.422 0 8-3.578 8-8v-56c0-4.422-3.578-8-8-8zm-80 64h-24v-88h24zm64 0h-24v-24h-8v24h-24v-112h56zm16 0h-8v-8h8zm0-16h-8v-8h8zm0-16h-8v-8h8zm0-16h-8v-8h8z" style="clip-rule:evenodd;fill-rule:evenodd;fill:#3356ec"/><rect x="51.568" y="32.042" width="9.2203" height="9.2203" style="fill:#21dab0"/><rect x="19.127" y="54.966" width="9.2203" height="9.2203" style="fill:#21dab0"/><rect x="82.712" y="62.644" width="9.2203" height="9.2203" style="fill:#21dab0"/></svg>
