<?xml version="1.0" encoding="UTF-8"?>
<svg width="512px" height="512px" style="enable-background:new 0 0 522.781 522.782" version="1.1" viewBox="0 0 522.781 522.782" xml:space="preserve" xmlns="http://www.w3.org/2000/svg"><path d="m512.7 455.4-75.353-75.2c-7.191-7.19-16.983-10.557-26.469-10.098l-42.908-25.185c61.735-81.625 62.109-209.44-12.25-283.87-81.318-81.319-213.28-81.319-294.6 0.153-81.473 81.472-81.473 213.28-0.153 294.6 74.435 74.435 204.47 76.201 286.09 14.466l22.97 40.692c-0.459 9.485 2.907 19.277 10.098 26.469l75.2 75.199c13.464 13.464 35.419 13.464 48.883 0l8.339-8.339c13.616-13.464 13.616-35.266 0.152-48.883zm-182.1-118.08c-83.039 63.103-186.29 52.245-242.3-8.7077-63.777-69.415-69.748-154.67-4.2774-237.87 71.963-71.963 186.16-72.63 244.51-9.0137 83.013 90.499 56.227 205.62 2.0612 255.59z" style="fill:#3356ec"/><path d="m265.07 186.73h-34.119v-34.119c0-12.316-9.945-22.262-22.108-22.262h-0.229c-12.164 0-22.108 9.945-22.108 22.262v34.119h-34.119c-12.316 0-22.261 9.945-22.261 22.109v0.153c0 12.164 9.945 22.108 22.261 22.108h34.119v34.119c0 12.317 9.945 22.262 22.108 22.262h0.153c12.163 0 22.108-9.944 22.108-22.262v-34.119h34.119c12.316 0 22.262-9.945 22.262-22.108v-0.153c0.152-12.164-9.792-22.109-22.186-22.109z" style="fill:#21dab0"/></svg>
