<?xml version="1.0" encoding="UTF-8"?>
<svg width="512px" height="512px" style="enable-background:new 0 0 611.98 611.98" version="1.1" viewBox="0 0 611.98 611.98" xml:space="preserve" xmlns="http://www.w3.org/2000/svg"><path d="m583.28 0c-103.29 0-202.96 4.501-286.81 59.104-44.204 28.786-80.919 69.083-110.55 114.13-71.688 4.386-138.42 40.699-180.57 99.785-5.746 8.063-6.934 18.521-3.16 27.656 3.773 9.155 11.989 15.686 21.757 17.352 25.818 4.348 54.413 15.936 83.275 33-5.209 19.114-9.461 37.673-12.468 55.045-1.609 9.192 1.379 18.635 7.987 25.224l77.932 77.912c5.439 5.439 12.755 8.408 20.301 8.408 1.647 0 3.275-0.134 4.922-0.422 17.391-3.007 35.949-7.259 55.063-12.468 17.065 28.901 28.652 57.496 33.019 83.313 1.647 9.768 8.216 17.965 17.353 21.776 3.543 1.455 7.258 2.164 10.975 2.164 5.898 0 11.74-1.819 16.682-5.324 59.066-42.136 95.398-108.88 99.746-180.59 45.047-29.648 85.344-66.345 114.11-110.57 54.564-83.793 59.123-187.62 59.123-286.81 0.039-15.838-12.832-28.689-28.69-28.689zm-543.56 283.57c30.505-46.754 65.256-64.891 126.18-81.079-13.215 25.856-42.533 88.591-51.746 114.64-19.842-10.936-55.185-27.506-74.433-33.558zm291.31 291.31c-6.053-19.286-27.81-59.815-38.765-79.639 26.066-9.212 88.802-41.123 114.66-54.357-5.8149 55.756-26.545 90.544-75.893 134zm199.63-280.34c-59.544 91.453-211.3 175.39-317.5 197.03l-87.58-84.966c21.662-106.22 95.226-260.55 186.66-320.1 63.414-41.273 189.48-58.944 273.25-60.016-1.052 83.773-13.554 204.63-54.828 268.05z" style="fill:#3356ec"/><circle cx="405.83" cy="208.75" r="47.973" style="fill:#21dab0"/><path d="m136.14 521.22c0 26.495-23.791 37.147-47.973 47.973-95.412 42.714-92.543 42.421-47.973-47.973 11.717-23.763 21.478-47.973 47.973-47.973 26.495 0 47.973 21.478 47.973 47.973z" style="fill:#21dab0"/></svg>
