<?xml version="1.0" encoding="UTF-8"?>
<svg width="433.96" height="295.16" version="1.1" viewBox="0 0 114.82 78.093334" xmlns="http://www.w3.org/2000/svg">
    <rect y=".041699" width="114.82" height="78.053" style="fill:#eeeeee;stroke-width:1.0548"/>
    <ellipse cx="56.784" cy="42.516" rx="54.377" ry="25.453" style="fill:none;stroke-width:1.1338;stroke:#785aa0"/>
    <rect x="11.615" y="51.096" width="16.113" height="15.056" style="fill-opacity:.93333;fill:#eeeeee"/>
    <rect x="49.125" y="60.616" width="16.113" height="15.056" style="fill-opacity:.93333;fill:#eeeeee"/>
    <rect x="86.63" y="50.576" width="16.113" height="15.056" style="fill-opacity:.93333;fill:#eeeeee"/>
    <rect x="86.63" y="19.406" width="16.113" height="15.056" style="fill-opacity:.93333;fill:#eeeeee"/>
    <rect x="48.86" y="10.426" width="16.113" height="15.056" style="fill-opacity:.93333;fill:#eeeeee"/>
    <rect x="11.219" y="19.266" width="16.113" height="15.056" style="fill-opacity:.93333;fill:#eeeeee"/>
    <path d="m53.377 15.656h-0.81422v0.81422h0.81422zm3.2569-0.81423h-0.81422v0.81423h0.81422zm1.6284 0h-0.81422v0.81423h0.81422zm1.6284 0h-0.81422v0.81423h0.81422zm-3.2569-1.6284h-0.81422v0.81422h0.81422zm1.6284 0h-0.81422v0.81422h0.81422zm1.6284 0h-0.81422v0.81422h0.81422zm-3.2569 4.8853h-0.81422v0.81422h0.81422zm1.6284 0h-0.81422v0.81422h0.81422zm1.6284 0h-0.81422v0.81422h0.81422zm-3.2569 1.6284h-0.81422v0.81422h0.81422zm3.2569 0h-0.81422v0.81422h0.81422zm-3.2569 1.6284h-0.81422v0.81423h0.81422zm3.2569 0h-0.81422v0.81423h0.81422zm-3.2569-4.8853h-0.81422v0.81423h0.81422zm1.6284 0h-0.81422v0.81423h0.81422zm1.6284 0h-0.81422v0.81423h0.81422zm-6.5138 0.81423h-0.81422v0.81422h0.81422zm0 1.6284h-0.81422v0.81423h0.81422zm0 1.6284h-0.81422v0.81422h0.81422zm0 1.6284h-0.81422v0.81422h0.81422zm4.8853-2.4427h-0.81422v0.81422h0.81422zm4.0711-2.4427h-0.81422v-4.8854c0-0.45006-0.36416-0.81422-0.81422-0.81422h-5.6996c-0.45006 0-0.81422 0.36416-0.81422 0.81422v1.6284h-2.4427c-0.45006 0-0.81422 0.36416-0.81422 0.81422v8.9565c0 0.45006 0.36416 0.81422 0.81422 0.81422h10.585c0.45006 0 0.81422-0.36416 0.81422-0.81422v-5.6996c0-0.45006-0.36416-0.81422-0.81422-0.81422zm-8.1422 6.5138h-2.4427v-8.9565h2.4427zm6.5138 0h-2.4427v-2.4427h-0.81422v2.4427h-2.4427v-11.399h5.6996zm1.6284 0h-0.81422v-0.81423h0.81422zm0-1.6284h-0.81422v-0.81423h0.81422zm0-1.6284h-0.81422v-0.81422h0.81422zm0-1.6284h-0.81422v-0.81422h0.81422z" style="clip-rule:evenodd;fill-rule:evenodd;fill:#79589f;stroke-width:.52917"/>
    <g transform="translate(-6.2268 -229.48)" style="stroke-width:.52917;stroke:#c123d8">
        <path d="m58.17 255.36h-2.986v-15.401h2.9482" style="fill:none;stroke-linecap:round;stroke-linejoin:round;stroke-width:.52917;stroke:#c123d8"/>
        <path d="m68.434 239.97h2.986v15.401h-2.9482" style="fill:none;stroke-linecap:round;stroke-linejoin:round;stroke-width:.52917;stroke:#c123d8"/>
    </g>
    <g transform="translate(31.617 -220.97)" style="stroke-width:.52917;stroke:#c123d8">
        <path d="m58.17 255.36h-2.986v-15.401h2.9482" style="fill:none;stroke-linecap:round;stroke-linejoin:round;stroke-width:.52917;stroke:#c123d8"/>
        <path d="m68.434 239.97h2.986v15.401h-2.9482" style="fill:none;stroke-linecap:round;stroke-linejoin:round;stroke-width:.52917;stroke:#c123d8"/>
    </g>
    <g transform="translate(-6.2208 -179.39)" style="stroke-width:.52917;stroke:#c123d8">
        <path d="m58.17 255.36h-2.986v-15.401h2.9482" style="fill:none;stroke-linecap:round;stroke-linejoin:round;stroke-width:.52917;stroke:#c123d8"/>
        <path d="m68.434 239.97h2.986v15.401h-2.9482" style="fill:none;stroke-linecap:round;stroke-linejoin:round;stroke-width:.52917;stroke:#c123d8"/>
    </g>
    <g transform="translate(-43.789 -189.33)" style="stroke-width:.52917;stroke:#c123d8">
        <path d="m58.17 255.36h-2.986v-15.401h2.9482" style="fill:none;stroke-linecap:round;stroke-linejoin:round;stroke-width:.52917;stroke:#c123d8"/>
        <path d="m68.434 239.97h2.986v15.401h-2.9482" style="fill:none;stroke-linecap:round;stroke-linejoin:round;stroke-width:.52917;stroke:#c123d8"/>
    </g>
    <g transform="translate(-43.978 -220.71)" style="stroke-width:.52917;stroke:#c123d8">
        <path d="m58.17 255.36h-2.986v-15.401h2.9482" style="fill:none;stroke-linecap:round;stroke-linejoin:round;stroke-width:.52917;stroke:#c123d8"/>
        <path d="m68.434 239.97h2.986v15.401h-2.9482" style="fill:none;stroke-linecap:round;stroke-linejoin:round;stroke-width:.52917;stroke:#c123d8"/>
    </g>
    <g transform="translate(31.617 -189.41)" style="stroke-width:.52917;stroke:#c123d8">
        <path d="m58.17 255.36h-2.986v-15.401h2.9482" style="fill:none;stroke-linecap:round;stroke-linejoin:round;stroke-width:.52917;stroke:#c123d8"/>
        <path d="m68.434 239.97h2.986v15.401h-2.9482" style="fill:none;stroke-linecap:round;stroke-linejoin:round;stroke-width:.52917;stroke:#c123d8"/>
    </g>
    <g transform="matrix(.028486 0 0 .028486 88.54 51.516)" style="fill:#79589f;stroke-width:2.8608;stroke:#79589f">
        <path d="m423 219.5v-8.5h16.5c4.142 0 7.5-3.358 7.5-7.5v-24.5h8.5c4.142 0 7.5-3.358 7.5-7.5v-24c0-2.691-1.442-5.177-3.779-6.512l-224-128c-2.306-1.317-5.137-1.317-7.442 0l-224 128c-2.337 1.335-3.779 3.82-3.779 6.512v24c0 4.142 3.358 7.5 7.5 7.5h8.5v24.5c0 4.142 3.358 7.5 7.5 7.5h16.5v8.5c0 5.827 3.235 10.908 8 13.555v138.94h-24.5c-4.142 0-7.5 3.358-7.5 7.5v24.5h-8.5c-4.142 0-7.5 3.358-7.5 7.5v32c0 4.142 3.358 7.5 7.5 7.5h448c4.142 0 7.5-3.358 7.5-7.5v-32c0-4.142-3.358-7.5-7.5-7.5h-8.5v-24.5c0-4.142-3.358-7.5-7.5-7.5h-24.5v-138.94c4.765-2.647 8-7.728 8-13.555zm-15 0c0 0.276-0.224 0.5-0.5 0.5h-32c-0.276 0-0.5-0.224-0.5-0.5v-8.5h33zm-73 152.5v-138.94c4.765-2.647 8-7.728 8-13.555v-8.5h17v8.5c0 5.827 3.235 10.908 8 13.555v138.94zm-32 0v-137h17v137zm-48 0v-138.94c4.765-2.647 8-7.728 8-13.555v-8.5h17v8.5c0 5.827 3.235 10.908 8 13.555v138.94zm-32 0v-137h17v137zm-48 0v-138.94c4.765-2.647 8-7.728 8-13.555v-8.5h17v8.5c0 5.827 3.235 10.908 8 13.555v138.94zm-32 0v-137h17v137zm-48 0v-138.94c4.765-2.647 8-7.728 8-13.555v-8.5h17v8.5c0 5.827 3.235 10.908 8 13.555v138.94zm73-161v8.5c0 0.276-0.224 0.5-0.5 0.5h-32c-0.276 0-0.5-0.224-0.5-0.5v-8.5zm80 0v8.5c0 0.276-0.224 0.5-0.5 0.5h-32c-0.276 0-0.5-0.224-0.5-0.5v-8.5zm80 0v8.5c0 0.276-0.224 0.5-0.5 0.5h-32c-0.276 0-0.5-0.224-0.5-0.5v-8.5zm-313-59.148 216.5-123.71 216.5 123.71v12.148h-433zm16 27.148h401v17h-401zm57 32v8.5c0 0.276-0.224 0.5-0.5 0.5h-32c-0.276 0-0.5-0.224-0.5-0.5v-8.5zm-25 24h17v137h-17zm385 201h-433v-17h433zm-16-32h-401v-17h401zm-49-32v-137h17v137z" style="fill:#79589f;stroke-width:2.8608;stroke:#79589f"/>
    </g>
    <g transform="matrix(.02498 0 0 .02498 88.47 20.296)" style="fill:#79589f">
        <g style="fill:#79589f">
            <g style="fill:#79589f">
                <path d="m475.43 0h-438.86c-20.165 0-36.571 16.406-36.571 36.571v438.86c0 20.164 16.406 36.57 36.571 36.57h438.86c20.166 0 36.572-16.406 36.572-36.571v-438.86c0-20.165-16.406-36.571-36.571-36.571zm-451.05 143.58h57.785v23.573h-57.785zm0 47.954h34.743v128.93h-34.743zm0 153.32h57.785v23.573h-57.785zm463.24 130.58c0 6.722-5.469 12.19-12.19 12.19h-438.86c-6.722 0-12.19-5.469-12.19-12.19v-82.627h34.743v42.398c0 9.746 7.93 17.676 17.676 17.676h358.4c9.746 0 17.676-7.93 17.676-17.676v-358.4c0-9.746-7.93-17.676-17.676-17.676h-358.4c-9.746 0-17.676 7.93-17.676 17.676v42.398h-34.743v-82.627c0-6.722 5.469-12.19 12.19-12.19h438.86c6.722 0 12.19 5.469 12.19 12.19v438.86zm-393.26-154.96h-12.071v-128.93h12.071c6.733 0 12.19-5.459 12.19-12.19v-47.954c0-6.732-5.458-12.19-12.19-12.19h-12.071v-36.913h347.43v347.43h-347.43v-36.913h12.071c6.733 0 12.19-5.459 12.19-12.19v-47.954c0-6.732-5.457-12.191-12.19-12.191z" style="fill:#79589f"/>
            </g>
        </g>
        <g style="fill:#79589f">
            <g style="fill:#79589f">
                <path d="m340.48 171.52c-46.581-46.579-122.37-46.579-168.95 0-46.58 46.581-46.58 122.37 0 168.95 23.29 23.289 53.883 34.934 84.475 34.934 30.593 0 61.185-11.646 84.476-34.934 46.58-46.582 46.58-122.37 0-168.95zm12.364 73.503h-30.597v1e-3c-1.663-10.169-5.628-19.745-11.643-28.111l21.671-21.671c11.722 14.695 18.573 32.01 20.569 49.781zm-85.869-85.866c17.771 1.996 35.088 8.847 49.782 20.569l-21.671 21.671c-8.366-6.015-17.942-9.982-28.111-11.643zm-21.942-1e-3v30.597c-10.169 1.663-19.745 5.628-28.111 11.644l-21.671-21.671c14.694-11.722 32.01-18.574 49.782-20.57zm-65.299 36.086 21.671 21.671c-6.015 8.366-9.982 17.942-11.644 28.111h-30.596c1.995-17.771 8.847-35.087 20.569-49.782zm-20.569 71.725h30.596c1.663 10.169 5.628 19.745 11.644 28.111l-21.671 21.671c-11.722-14.694-18.574-32.01-20.569-49.782zm85.868 85.869c-17.771-1.996-35.088-8.848-49.782-20.57l21.671-21.671c8.366 6.015 17.942 9.982 28.111 11.644zm-20.994-64.877c-8.538-8.537-13.24-19.888-13.24-31.963 0-12.076 4.702-23.426 13.24-31.963 8.538-8.538 19.89-13.24 31.965-13.24s23.426 4.702 31.963 13.24c8.538 8.537 13.24 19.888 13.24 31.963 0 12.076-4.702 23.426-13.24 31.963-8.537 8.538-19.889 13.24-31.963 13.24s-23.426-4.701-31.965-13.24zm42.936 64.878v-30.598c10.169-1.662 19.745-5.628 28.111-11.643l21.671 21.671c-14.694 11.722-32.01 18.575-49.782 20.57zm65.299-36.089-21.671-21.671c6.015-8.366 9.982-17.942 11.643-28.111h30.597c-1.995 17.773-8.847 35.089-20.569 49.782z" style="fill:#79589f"/>
            </g>
        </g>
    </g>
    <g transform="matrix(.023936 0 0 .023936 13.365 20.826)" style="fill:#79589f">
        <g style="fill:#79589f">
            <path d="m0 208c0 29.781 20.438 54.594 48 61.75v210.25h-32c-8.813 0-16 7.156-16 16s7.188 16 16 16h480c8.875 0 16-7.156 16-16s-7.125-16-16-16h-32v-210.25c27.562-7.156 48-31.969 48-61.75v-16h-512zm320 64c35.375 0 64-28.656 64-64 0 29.781 20.438 54.594 48 61.75v210.25h-240v-208c35.375 0 64-28.656 64-64 0 35.344 28.688 64 64 64zm-144-2.25v210.25h-96v-210.25c27.563-7.156 48-31.969 48-61.75 0 29.781 20.438 54.594 48 61.75zm272-221.75h-384l-64 128h512zm-312.81 35.563-32 64c-1.438 2.813-4.25 4.438-7.188 4.438-1.188 0-2.406-0.25-3.563-0.844-3.938-1.969-5.563-6.781-3.563-10.719l32-64c2-3.938 6.781-5.531 10.719-3.594 3.97 1.969 5.532 6.781 3.595 10.719zm64 0-32 64c-1.438 2.813-4.25 4.438-7.188 4.438-1.188 0-2.406-0.25-3.563-0.844-3.938-1.969-5.563-6.781-3.563-10.719l32-64c2-3.938 6.813-5.531 10.719-3.594 3.97 1.969 5.532 6.781 3.595 10.719zm64.812 60.437c0 4.438-3.562 8-8 8-4.406 0-8-3.563-8-8v-64c0-4.438 3.594-8 8-8 4.438 0 8 3.563 8 8zm91.875 7c-1.25 0.688-2.562 1-3.875 1-2.812 0-5.562-1.5-7-4.156l-35-64c-2.125-3.875-0.688-8.75 3.188-10.844 3.813-2.125 8.75-0.75 10.875 3.156l35 64c2.062 3.875 0.687 8.75-3.188 10.844zm63.687 0.156c-1.124 0.594-2.312 0.844-3.562 0.844-2.938 0-5.75-1.625-7.125-4.438l-32-64c-2-3.938-0.375-8.75 3.562-10.719 3.875-1.969 8.75-0.375 10.75 3.594l32 64c1.938 3.938 0.375 8.751-3.625 10.719zm-283.56 235.28v-36.875c-4.688-2.812-8-7.688-8-13.562 0-8.844 7.188-16 16-16 8.875 0 16 7.156 16 16 0 5.875-3.281 10.75-8 13.562v36.875c4.719 2.813 8 7.688 8 13.563 0 8.844-7.125 16-16 16-8.813 0-16-7.156-16-16 0-5.876 3.313-10.751 8-13.563zm-72-370.44c0-8.844 7.188-16 16-16h352c8.875 0 16 7.156 16 16s-7.125 16-16 16h-352c-8.812 0-16-7.156-16-16zm216.44 341.66-11.312-11.313 45.25-45.25 11.312 11.313zm0 45.25-11.312-11.313 90.5-90.5 11.312 11.313zm79.187-56.562 11.312 11.313-45.25 45.25-11.312-11.313z" style="fill:#79589f"/>
        </g>
    </g>
    <g transform="matrix(.044899 0 0 .044899 50.361 61.326)" style="fill:#79589f">
        <g style="fill:#79589f">
            <path d="m291.22 78.753-138.04-69.021c-2.943-1.473-6.409-1.473-9.353 0l-138.04 69.021c-3.543 1.772-5.781 5.392-5.781 9.354v189.81c0 5.775 4.682 10.458 10.458 10.458h34.511c5.775 0 10.458-4.682 10.458-10.458v-162.1h186.15v162.1c0 5.775 4.682 10.458 10.458 10.458h34.511c5.775 0 10.458-4.682 10.458-10.458v-189.81c-2e-3 -3.962-2.24-7.582-5.783-9.354zm-15.134 188.7h-13.595v-162.1c0-5.775-4.682-10.458-10.458-10.458h-207.06c-5.775 0-10.458 4.682-10.458 10.458v162.1h-13.595v-172.89l127.58-63.792 127.58 63.792z" style="fill:#79589f"/>
            <path d="m217.52 132.55h-69.021c-4.043 0-7.32 3.277-7.32 7.32v61.701h-61.701c-4.043 0-7.32 3.277-7.32 7.32v69.021c0 4.043 3.277 7.32 7.32 7.32h138.04c4.043 0 7.32-3.277 7.32-7.32v-138.04c1e-3 -4.044-3.277-7.321-7.32-7.321zm-61.701 94.016 16.837 16.837-16.837 16.837zm-14.64 33.673-16.837-16.837 16.837-16.837zm24.994-44.027h33.673l-16.837 16.837zm0-14.641 16.837-16.837 16.837 16.837zm44.027-10.353-16.836-16.837 16.836-16.837zm-27.19-27.19-16.837-16.837h33.673zm-10.354 10.353-16.837 16.837v-33.673zm-58.668 58.668-16.837-16.837h33.673zm-10.353 10.353-16.837 16.837v-33.673zm10.353 10.354 16.837 16.837h-33.673zm69.021 0 16.837 16.837h-33.673zm10.354-10.354 16.837-16.837v33.673z" style="fill:#79589f"/>
        </g>
    </g>
    <g transform="matrix(.026405 0 0 .026405 12.979 51.446)" style="fill:#79589f;stroke-width:10.02;stroke:#79589f">
        <g style="fill:#79589f;stroke-width:10.02;stroke:#79589f">
            <path d="m488.8 487.8v-253.3l-86.5 88.6v-88.6l-86.5 88.6v-88.6l-91.7 94.9-10.4-212.6h-76.1l-10.4 216.8h-24l-10.4-216.8h-75.1l-17.7 371.1h490v-0.1zm-18.7-20.8h-448.2l15.7-329.4h36.5l10.4 216.8h65.7l10.4-216.8h35.4l10.4 216.9h24l66.7-68.8v68.8h19.8l66.7-68.8v68.8h19.8l66.7-68.8z" style="fill:#79589f;stroke-width:10.02;stroke:#79589f"/>
            <rect x="415.9" y="375.3" width="33.4" height="20.8" style="fill:#79589f;stroke-width:10.02;stroke:#79589f"/>
            <rect x="328.4" y="375.3" width="33.4" height="20.8" style="fill:#79589f;stroke-width:10.02;stroke:#79589f"/>
            <rect x="240.8" y="375.3" width="33.4" height="20.8" style="fill:#79589f;stroke-width:10.02;stroke:#79589f"/>
            <polygon points="186.6 101.2 186.6 50.1 214.8 15.7 199.1 2.1 165.8 42.8 165.8 101.2" style="fill:#79589f;stroke-width:10.02;stroke:#79589f"/>
            <polygon points="59.5 101.2 59.5 50.1 88.6 15.7 72 2.1 38.6 42.8 38.6 101.2" style="fill:#79589f;stroke-width:10.02;stroke:#79589f"/>
        </g>
    </g>
    <g transform="matrix(.018289 0 0 .018289 103.97 55.986)" style="fill:#0456a1">
        <g style="fill:#0456a1">
            <path d="m240 356.07v-223.95c0-4.143-3.357-7.5-7.5-7.5s-7.5 3.357-7.5 7.5v223.95c0 4.143 3.357 7.5 7.5 7.5s7.5-3.357 7.5-7.5z" style="fill:#0456a1"/>
            <path d="m457.5 75.782c-15.856 0-35.614-6.842-56.533-14.085-26.492-9.174-56.521-19.571-87.663-19.571-36.035 0-58.019 15.791-70.115 29.038-4.524 4.956-8.03 9.922-10.688 14.327-2.658-4.405-6.164-9.371-10.688-14.327-12.097-13.247-34.08-29.038-70.115-29.038-31.143 0-61.171 10.397-87.663 19.571-20.921 7.243-40.679 14.085-56.535 14.085-4.143 0-7.5 3.357-7.5 7.5v302.09c0 4.143 3.357 7.5 7.5 7.5 18.38 0 39.297-7.243 61.441-14.911 25.375-8.786 54.136-18.745 82.755-18.745 24.54 0 44.403 8.126 59.038 24.152 2.792 3.058 7.537 3.273 10.596 0.48s3.273-7.537 0.48-10.596c-12.097-13.246-34.08-29.037-70.114-29.037-31.143 0-61.171 10.397-87.663 19.571-17.735 6.143-34.637 11.994-49.033 13.634v-287.01c16.491-1.571 34.755-7.896 53.941-14.539 25.375-8.786 54.136-18.745 82.755-18.745 57.881 0 73.025 45.962 73.634 47.894 0.968 3.148 3.876 5.298 7.17 5.298s6.202-2.149 7.17-5.298c0.146-0.479 15.383-47.894 73.634-47.894 28.619 0 57.38 9.959 82.755 18.745 19.187 6.644 37.45 12.968 53.941 14.539v287.01c-14.396-1.64-31.298-7.491-49.033-13.633-26.492-9.174-56.521-19.571-87.663-19.571-36.036 0-58.02 15.791-70.115 29.038-2.793 3.06-2.578 7.803 0.48 10.596 3.06 2.793 7.804 2.578 10.596-0.48 14.635-16.027 34.498-24.153 59.039-24.153 28.619 0 57.38 9.959 82.755 18.745 22.145 7.668 43.062 14.911 61.441 14.911 4.143 0 7.5-3.357 7.5-7.5v-302.09c0-4.142-3.357-7.5-7.5-7.5z" style="fill:#0456a1"/>
            <path d="m457.5 407.87c-15.856 0-35.614-6.842-56.533-14.085-26.492-9.174-56.521-19.571-87.663-19.571-33.843 0-55.291 13.928-67.796 26.596l-26.017-1e-3c-12.505-12.668-33.954-26.595-67.795-26.595-31.143 0-61.171 10.397-87.663 19.571-20.919 7.243-40.677 14.085-56.533 14.085-4.143 0-7.5 3.357-7.5 7.5s3.357 7.5 7.5 7.5c18.38 0 39.297-7.243 61.441-14.911 25.375-8.786 54.136-18.745 82.755-18.745 24.54 0 44.403 8.126 59.038 24.152 1.421 1.556 3.431 2.442 5.538 2.442l32.454 1e-3c2.107 0 4.117-0.887 5.538-2.442 14.635-16.027 34.498-24.153 59.039-24.153 28.619 0 57.38 9.959 82.755 18.745 22.145 7.668 43.062 14.911 61.441 14.911 4.143 0 7.5-3.357 7.5-7.5s-3.356-7.5-7.499-7.5z" style="fill:#0456a1"/>
        </g>
    </g>
    <g transform="matrix(.018289 0 0 .018289 104.31 20.396)" style="fill:#0456a1">
        <g style="fill:#0456a1">
            <path d="m240 356.07v-223.95c0-4.143-3.357-7.5-7.5-7.5s-7.5 3.357-7.5 7.5v223.95c0 4.143 3.357 7.5 7.5 7.5s7.5-3.357 7.5-7.5z" style="fill:#0456a1"/>
            <path d="m457.5 75.782c-15.856 0-35.614-6.842-56.533-14.085-26.492-9.174-56.521-19.571-87.663-19.571-36.035 0-58.019 15.791-70.115 29.038-4.524 4.956-8.03 9.922-10.688 14.327-2.658-4.405-6.164-9.371-10.688-14.327-12.097-13.247-34.08-29.038-70.115-29.038-31.143 0-61.171 10.397-87.663 19.571-20.921 7.243-40.679 14.085-56.535 14.085-4.143 0-7.5 3.357-7.5 7.5v302.09c0 4.143 3.357 7.5 7.5 7.5 18.38 0 39.297-7.243 61.441-14.911 25.375-8.786 54.136-18.745 82.755-18.745 24.54 0 44.403 8.126 59.038 24.152 2.792 3.058 7.537 3.273 10.596 0.48s3.273-7.537 0.48-10.596c-12.097-13.246-34.08-29.037-70.114-29.037-31.143 0-61.171 10.397-87.663 19.571-17.735 6.143-34.637 11.994-49.033 13.634v-287.01c16.491-1.571 34.755-7.896 53.941-14.539 25.375-8.786 54.136-18.745 82.755-18.745 57.881 0 73.025 45.962 73.634 47.894 0.968 3.148 3.876 5.298 7.17 5.298s6.202-2.149 7.17-5.298c0.146-0.479 15.383-47.894 73.634-47.894 28.619 0 57.38 9.959 82.755 18.745 19.187 6.644 37.45 12.968 53.941 14.539v287.01c-14.396-1.64-31.298-7.491-49.033-13.633-26.492-9.174-56.521-19.571-87.663-19.571-36.036 0-58.02 15.791-70.115 29.038-2.793 3.06-2.578 7.803 0.48 10.596 3.06 2.793 7.804 2.578 10.596-0.48 14.635-16.027 34.498-24.153 59.039-24.153 28.619 0 57.38 9.959 82.755 18.745 22.145 7.668 43.062 14.911 61.441 14.911 4.143 0 7.5-3.357 7.5-7.5v-302.09c0-4.142-3.357-7.5-7.5-7.5z" style="fill:#0456a1"/>
            <path d="m457.5 407.87c-15.856 0-35.614-6.842-56.533-14.085-26.492-9.174-56.521-19.571-87.663-19.571-33.843 0-55.291 13.928-67.796 26.596l-26.017-1e-3c-12.505-12.668-33.954-26.595-67.795-26.595-31.143 0-61.171 10.397-87.663 19.571-20.919 7.243-40.677 14.085-56.533 14.085-4.143 0-7.5 3.357-7.5 7.5s3.357 7.5 7.5 7.5c18.38 0 39.297-7.243 61.441-14.911 25.375-8.786 54.136-18.745 82.755-18.745 24.54 0 44.403 8.126 59.038 24.152 1.421 1.556 3.431 2.442 5.538 2.442l32.454 1e-3c2.107 0 4.117-0.887 5.538-2.442 14.635-16.027 34.498-24.153 59.039-24.153 28.619 0 57.38 9.959 82.755 18.745 22.145 7.668 43.062 14.911 61.441 14.911 4.143 0 7.5-3.357 7.5-7.5s-3.356-7.5-7.499-7.5z" style="fill:#0456a1"/>
        </g>
    </g>
    <g transform="matrix(.018289 0 0 .018289 1.5782 19.486)" style="fill:#2556b5">
        <path d="m240 356.07v-223.95c0-4.143-3.357-7.5-7.5-7.5s-7.5 3.357-7.5 7.5v223.95c0 4.143 3.357 7.5 7.5 7.5s7.5-3.357 7.5-7.5z" style="fill:#2556b5"/>
        <path d="m457.5 75.782c-15.856 0-35.614-6.842-56.533-14.085-26.492-9.174-56.521-19.571-87.663-19.571-36.035 0-58.019 15.791-70.115 29.038-4.524 4.956-8.03 9.922-10.688 14.327-2.658-4.405-6.164-9.371-10.688-14.327-12.097-13.247-34.08-29.038-70.115-29.038-31.143 0-61.171 10.397-87.663 19.571-20.921 7.243-40.679 14.085-56.535 14.085-4.143 0-7.5 3.357-7.5 7.5v302.09c0 4.143 3.357 7.5 7.5 7.5 18.38 0 39.297-7.243 61.441-14.911 25.375-8.786 54.136-18.745 82.755-18.745 24.54 0 44.403 8.126 59.038 24.152 2.792 3.058 7.537 3.273 10.596 0.48s3.273-7.537 0.48-10.596c-12.097-13.246-34.08-29.037-70.114-29.037-31.143 0-61.171 10.397-87.663 19.571-17.735 6.143-34.637 11.994-49.033 13.634v-287.01c16.491-1.571 34.755-7.896 53.941-14.539 25.375-8.786 54.136-18.745 82.755-18.745 57.881 0 73.025 45.962 73.634 47.894 0.968 3.148 3.876 5.298 7.17 5.298s6.202-2.149 7.17-5.298c0.146-0.479 15.383-47.894 73.634-47.894 28.619 0 57.38 9.959 82.755 18.745 19.187 6.644 37.45 12.968 53.941 14.539v287.01c-14.396-1.64-31.298-7.491-49.033-13.633-26.492-9.174-56.521-19.571-87.663-19.571-36.036 0-58.02 15.791-70.115 29.038-2.793 3.06-2.578 7.803 0.48 10.596 3.06 2.793 7.804 2.578 10.596-0.48 14.635-16.027 34.498-24.153 59.039-24.153 28.619 0 57.38 9.959 82.755 18.745 22.145 7.668 43.062 14.911 61.441 14.911 4.143 0 7.5-3.357 7.5-7.5v-302.09c0-4.142-3.357-7.5-7.5-7.5z" style="fill:#2556b5"/>
        <path d="m457.5 407.87c-15.856 0-35.614-6.842-56.533-14.085-26.492-9.174-56.521-19.571-87.663-19.571-33.843 0-55.291 13.928-67.796 26.596l-26.017-1e-3c-12.505-12.668-33.954-26.595-67.795-26.595-31.143 0-61.171 10.397-87.663 19.571-20.919 7.243-40.677 14.085-56.533 14.085-4.143 0-7.5 3.357-7.5 7.5s3.357 7.5 7.5 7.5c18.38 0 39.297-7.243 61.441-14.911 25.375-8.786 54.136-18.745 82.755-18.745 24.54 0 44.403 8.126 59.038 24.152 1.421 1.556 3.431 2.442 5.538 2.442l32.454 1e-3c2.107 0 4.117-0.887 5.538-2.442 14.635-16.027 34.498-24.153 59.039-24.153 28.619 0 57.38 9.959 82.755 18.745 22.145 7.668 43.062 14.911 61.441 14.911 4.143 0 7.5-3.357 7.5-7.5s-3.356-7.5-7.499-7.5z" style="fill:#2556b5"/>
    </g>
    <g transform="matrix(.018289 0 0 .018289 1.5782 56.116)" style="fill:#0456a1">
        <g style="fill:#0456a1">
            <path d="m240 356.07v-223.95c0-4.143-3.357-7.5-7.5-7.5s-7.5 3.357-7.5 7.5v223.95c0 4.143 3.357 7.5 7.5 7.5s7.5-3.357 7.5-7.5z" style="fill:#0456a1"/>
            <path d="m457.5 75.782c-15.856 0-35.614-6.842-56.533-14.085-26.492-9.174-56.521-19.571-87.663-19.571-36.035 0-58.019 15.791-70.115 29.038-4.524 4.956-8.03 9.922-10.688 14.327-2.658-4.405-6.164-9.371-10.688-14.327-12.097-13.247-34.08-29.038-70.115-29.038-31.143 0-61.171 10.397-87.663 19.571-20.921 7.243-40.679 14.085-56.535 14.085-4.143 0-7.5 3.357-7.5 7.5v302.09c0 4.143 3.357 7.5 7.5 7.5 18.38 0 39.297-7.243 61.441-14.911 25.375-8.786 54.136-18.745 82.755-18.745 24.54 0 44.403 8.126 59.038 24.152 2.792 3.058 7.537 3.273 10.596 0.48s3.273-7.537 0.48-10.596c-12.097-13.246-34.08-29.037-70.114-29.037-31.143 0-61.171 10.397-87.663 19.571-17.735 6.143-34.637 11.994-49.033 13.634v-287.01c16.491-1.571 34.755-7.896 53.941-14.539 25.375-8.786 54.136-18.745 82.755-18.745 57.881 0 73.025 45.962 73.634 47.894 0.968 3.148 3.876 5.298 7.17 5.298s6.202-2.149 7.17-5.298c0.146-0.479 15.383-47.894 73.634-47.894 28.619 0 57.38 9.959 82.755 18.745 19.187 6.644 37.45 12.968 53.941 14.539v287.01c-14.396-1.64-31.298-7.491-49.033-13.633-26.492-9.174-56.521-19.571-87.663-19.571-36.036 0-58.02 15.791-70.115 29.038-2.793 3.06-2.578 7.803 0.48 10.596 3.06 2.793 7.804 2.578 10.596-0.48 14.635-16.027 34.498-24.153 59.039-24.153 28.619 0 57.38 9.959 82.755 18.745 22.145 7.668 43.062 14.911 61.441 14.911 4.143 0 7.5-3.357 7.5-7.5v-302.09c0-4.142-3.357-7.5-7.5-7.5z" style="fill:#0456a1"/>
            <path d="m457.5 407.87c-15.856 0-35.614-6.842-56.533-14.085-26.492-9.174-56.521-19.571-87.663-19.571-33.843 0-55.291 13.928-67.796 26.596l-26.017-1e-3c-12.505-12.668-33.954-26.595-67.795-26.595-31.143 0-61.171 10.397-87.663 19.571-20.919 7.243-40.677 14.085-56.533 14.085-4.143 0-7.5 3.357-7.5 7.5s3.357 7.5 7.5 7.5c18.38 0 39.297-7.243 61.441-14.911 25.375-8.786 54.136-18.745 82.755-18.745 24.54 0 44.403 8.126 59.038 24.152 1.421 1.556 3.431 2.442 5.538 2.442l32.454 1e-3c2.107 0 4.117-0.887 5.538-2.442 14.635-16.027 34.498-24.153 59.039-24.153 28.619 0 57.38 9.959 82.755 18.745 22.145 7.668 43.062 14.911 61.441 14.911 4.143 0 7.5-3.357 7.5-7.5s-3.356-7.5-7.499-7.5z" style="fill:#0456a1"/>
        </g>
    </g>
    <g transform="matrix(.018289 0 0 .018289 39.167 8.6859)" style="fill:#2556b5">
        <path d="m240 356.07v-223.95c0-4.143-3.357-7.5-7.5-7.5s-7.5 3.357-7.5 7.5v223.95c0 4.143 3.357 7.5 7.5 7.5s7.5-3.357 7.5-7.5z" style="fill:#2556b5"/>
        <path d="m457.5 75.782c-15.856 0-35.614-6.842-56.533-14.085-26.492-9.174-56.521-19.571-87.663-19.571-36.035 0-58.019 15.791-70.115 29.038-4.524 4.956-8.03 9.922-10.688 14.327-2.658-4.405-6.164-9.371-10.688-14.327-12.097-13.247-34.08-29.038-70.115-29.038-31.143 0-61.171 10.397-87.663 19.571-20.921 7.243-40.679 14.085-56.535 14.085-4.143 0-7.5 3.357-7.5 7.5v302.09c0 4.143 3.357 7.5 7.5 7.5 18.38 0 39.297-7.243 61.441-14.911 25.375-8.786 54.136-18.745 82.755-18.745 24.54 0 44.403 8.126 59.038 24.152 2.792 3.058 7.537 3.273 10.596 0.48s3.273-7.537 0.48-10.596c-12.097-13.246-34.08-29.037-70.114-29.037-31.143 0-61.171 10.397-87.663 19.571-17.735 6.143-34.637 11.994-49.033 13.634v-287.01c16.491-1.571 34.755-7.896 53.941-14.539 25.375-8.786 54.136-18.745 82.755-18.745 57.881 0 73.025 45.962 73.634 47.894 0.968 3.148 3.876 5.298 7.17 5.298s6.202-2.149 7.17-5.298c0.146-0.479 15.383-47.894 73.634-47.894 28.619 0 57.38 9.959 82.755 18.745 19.187 6.644 37.45 12.968 53.941 14.539v287.01c-14.396-1.64-31.298-7.491-49.033-13.633-26.492-9.174-56.521-19.571-87.663-19.571-36.036 0-58.02 15.791-70.115 29.038-2.793 3.06-2.578 7.803 0.48 10.596 3.06 2.793 7.804 2.578 10.596-0.48 14.635-16.027 34.498-24.153 59.039-24.153 28.619 0 57.38 9.959 82.755 18.745 22.145 7.668 43.062 14.911 61.441 14.911 4.143 0 7.5-3.357 7.5-7.5v-302.09c0-4.142-3.357-7.5-7.5-7.5z" style="fill:#2556b5"/>
        <path d="m457.5 407.87c-15.856 0-35.614-6.842-56.533-14.085-26.492-9.174-56.521-19.571-87.663-19.571-33.843 0-55.291 13.928-67.796 26.596l-26.017-1e-3c-12.505-12.668-33.954-26.595-67.795-26.595-31.143 0-61.171 10.397-87.663 19.571-20.919 7.243-40.677 14.085-56.533 14.085-4.143 0-7.5 3.357-7.5 7.5s3.357 7.5 7.5 7.5c18.38 0 39.297-7.243 61.441-14.911 25.375-8.786 54.136-18.745 82.755-18.745 24.54 0 44.403 8.126 59.038 24.152 1.421 1.556 3.431 2.442 5.538 2.442l32.454 1e-3c2.107 0 4.117-0.887 5.538-2.442 14.635-16.027 34.498-24.153 59.039-24.153 28.619 0 57.38 9.959 82.755 18.745 22.145 7.668 43.062 14.911 61.441 14.911 4.143 0 7.5-3.357 7.5-7.5s-3.356-7.5-7.499-7.5z" style="fill:#2556b5"/>
    </g>
    <g transform="matrix(.018289 0 0 .018289 39.429 67.736)" style="fill:#2556b5">
        <path d="m240 356.07v-223.95c0-4.143-3.357-7.5-7.5-7.5s-7.5 3.357-7.5 7.5v223.95c0 4.143 3.357 7.5 7.5 7.5s7.5-3.357 7.5-7.5z" style="fill:#2556b5"/>
        <path d="m457.5 75.782c-15.856 0-35.614-6.842-56.533-14.085-26.492-9.174-56.521-19.571-87.663-19.571-36.035 0-58.019 15.791-70.115 29.038-4.524 4.956-8.03 9.922-10.688 14.327-2.658-4.405-6.164-9.371-10.688-14.327-12.097-13.247-34.08-29.038-70.115-29.038-31.143 0-61.171 10.397-87.663 19.571-20.921 7.243-40.679 14.085-56.535 14.085-4.143 0-7.5 3.357-7.5 7.5v302.09c0 4.143 3.357 7.5 7.5 7.5 18.38 0 39.297-7.243 61.441-14.911 25.375-8.786 54.136-18.745 82.755-18.745 24.54 0 44.403 8.126 59.038 24.152 2.792 3.058 7.537 3.273 10.596 0.48s3.273-7.537 0.48-10.596c-12.097-13.246-34.08-29.037-70.114-29.037-31.143 0-61.171 10.397-87.663 19.571-17.735 6.143-34.637 11.994-49.033 13.634v-287.01c16.491-1.571 34.755-7.896 53.941-14.539 25.375-8.786 54.136-18.745 82.755-18.745 57.881 0 73.025 45.962 73.634 47.894 0.968 3.148 3.876 5.298 7.17 5.298s6.202-2.149 7.17-5.298c0.146-0.479 15.383-47.894 73.634-47.894 28.619 0 57.38 9.959 82.755 18.745 19.187 6.644 37.45 12.968 53.941 14.539v287.01c-14.396-1.64-31.298-7.491-49.033-13.633-26.492-9.174-56.521-19.571-87.663-19.571-36.036 0-58.02 15.791-70.115 29.038-2.793 3.06-2.578 7.803 0.48 10.596 3.06 2.793 7.804 2.578 10.596-0.48 14.635-16.027 34.498-24.153 59.039-24.153 28.619 0 57.38 9.959 82.755 18.745 22.145 7.668 43.062 14.911 61.441 14.911 4.143 0 7.5-3.357 7.5-7.5v-302.09c0-4.142-3.357-7.5-7.5-7.5z" style="fill:#2556b5"/>
        <path d="m457.5 407.87c-15.856 0-35.614-6.842-56.533-14.085-26.492-9.174-56.521-19.571-87.663-19.571-33.843 0-55.291 13.928-67.796 26.596l-26.017-1e-3c-12.505-12.668-33.954-26.595-67.795-26.595-31.143 0-61.171 10.397-87.663 19.571-20.919 7.243-40.677 14.085-56.533 14.085-4.143 0-7.5 3.357-7.5 7.5s3.357 7.5 7.5 7.5c18.38 0 39.297-7.243 61.441-14.911 25.375-8.786 54.136-18.745 82.755-18.745 24.54 0 44.403 8.126 59.038 24.152 1.421 1.556 3.431 2.442 5.538 2.442l32.454 1e-3c2.107 0 4.117-0.887 5.538-2.442 14.635-16.027 34.498-24.153 59.039-24.153 28.619 0 57.38 9.959 82.755 18.745 22.145 7.668 43.062 14.911 61.441 14.911 4.143 0 7.5-3.357 7.5-7.5s-3.356-7.5-7.499-7.5z" style="fill:#2556b5"/>
    </g>
    <ellipse cx="35.817" cy="40.743" rx="10.807" ry="6.4893" style="fill:none;stroke-width:.3223;stroke:#2556b5"/>
    <ellipse cx="58.553" cy="36.133" rx="10.807" ry="6.4893" style="fill:none;stroke-width:.3223;stroke:#2556b5"/>
    <ellipse cx="53.062" cy="51.686" rx="10.807" ry="6.4893" style="fill:none;stroke-width:.3223;stroke:#2556b5"/>
    <ellipse cx="76.26" cy="46.655" rx="10.807" ry="6.4893" style="fill:none;stroke-width:.3223;stroke:#2556b5"/>
    <text transform="scale(1.0045 .99552)" x="35.515476" y="39.761261" style="fill:#c123d8;font-family:sans-serif;font-size:3.3071px;letter-spacing:0px;line-height:1;stroke-width:.24803;text-align:center;text-anchor:middle;word-spacing:0px" xml:space="preserve"><tspan x="35.515476" y="39.761261" style="fill:#c123d8;font-size:2.9763px;line-height:1;stroke-width:.24803;text-align:center;text-anchor:middle">ASSET</tspan><tspan x="35.515476" y="43.068314" style="fill:#c123d8;font-size:2.9763px;line-height:1;stroke-width:.24803;text-align:center;text-anchor:middle">TRANSFER</tspan></text>
    <text transform="scale(1.0507 .95176)" x="50.445" y="54.198109" style="fill:#c123d8;font-family:sans-serif;font-size:3.0892px;letter-spacing:0px;line-height:1;stroke-width:.23168;text-align:center;text-anchor:middle;word-spacing:0px" xml:space="preserve"><tspan x="50.445" y="54.198109" style="fill:#c123d8;font-size:2.7802px;line-height:1;stroke-width:.23168;text-align:center;text-anchor:middle">OWNERSHIP</tspan><tspan x="50.445" y="57.287281" style="fill:#c123d8;font-size:2.7802px;line-height:1;stroke-width:.23168;text-align:center;text-anchor:middle">RULES</tspan></text>
    <text x="76.020325" y="46.343777" style="fill:#c123d8;font-family:sans-serif;font-size:3.5278px;letter-spacing:0px;line-height:1;stroke-width:.26458;text-align:center;text-anchor:middle;word-spacing:0px" xml:space="preserve"><tspan x="76.020325" y="46.343777" style="fill:#c123d8;font-size:3.175px;line-height:1;stroke-width:.26458;text-align:center;text-anchor:middle">PAYMENT</tspan><tspan x="76.020325" y="49.871555" style="fill:#c123d8;font-size:3.175px;line-height:1;stroke-width:.26458;text-align:center;text-anchor:middle">RULES</tspan></text>
    <text transform="scale(1.0045 .99552)" x="58.268261" y="35.376965" style="fill:#c123d8;font-family:sans-serif;font-size:3.3071px;letter-spacing:0px;line-height:1;stroke-width:.24803;text-align:center;text-anchor:middle;word-spacing:0px" xml:space="preserve"><tspan x="58.268261" y="35.376965" style="fill:#c123d8;font-size:2.9763px;line-height:1;stroke-width:.24803;text-align:center;text-anchor:middle">TITLE</tspan><tspan x="58.268261" y="38.684021" style="fill:#c123d8;font-size:2.9763px;line-height:1;stroke-width:.24803;text-align:center;text-anchor:middle">TRANSFER</tspan></text>
    <text transform="scale(1.015 .98523)" x="5.1022468" y="5.6373105" style="fill:#79589f;font-family:sans-serif;font-size:5.5611px;letter-spacing:0px;line-height:1.25;stroke-width:.26068;word-spacing:0px" xml:space="preserve"><tspan x="5.1022468" y="5.6373105" style="fill:#79589f;font-size:4.5862px;stroke-width:.26068">EFFICACE, MOINS COÛTEUX, SÉCURITAIRE</tspan></text>
</svg>
