<?xml version="1.0" encoding="UTF-8"?>
<svg id="helpmeon" width="100.35" height="89.867" version="1.1" viewBox="0 -10 223 199.7049" xmlns="http://www.w3.org/2000/svg">
    <title id="title6222">helpmeon</title>
    <g id="g6230" transform="translate(0 -10.095)" style="fill:none;stroke-linecap:round;stroke-linejoin:round;stroke-width:3">
        <line id="line6224" x1="99.1" x2="129.6" y1="181.4" y2="181.4" style="stroke:#ffffff"/>
        <line id="line6226" x1="99.1" x2="129.6" y1="189.9" y2="189.9" style="stroke:#ffffff"/>
        <line id="line6228" x1="105.6" x2="123.2" y1="198.3" y2="198.3" style="stroke:#e558bf"/>
    </g>
    <g id="arrow" transform="translate(0 -10.095)" style="stroke:#bbc1d5">
        <polyline id="polyline6232" points="183.7 28.3 170.1 55.1 157.3 41.8 146.5 55.1" style="fill:none;stroke-linecap:round;stroke-linejoin:round;stroke-width:2;stroke:#bbc1d5"/>
        <polyline id="polyline6234" points="174.7 29.3 184.9 26.1 188 36.5" style="fill:none;stroke-linecap:round;stroke-linejoin:round;stroke-width:2;stroke:#bbc1d5"/>
        <line id="line6236" x1="188.6" x2="190.2" y1="18.1" y2="14.9" style="fill:none;stroke-linecap:round;stroke-linejoin:round;stroke-width:2;stroke:#bbc1d5"/>
        <line id="line6238" x1="192.1" x2="195.2" y1="23.9" y2="24.1" style="fill:none;stroke-linecap:round;stroke-linejoin:round;stroke-width:2;stroke:#bbc1d5"/>
        <line id="line6240" x1="180" x2="181.9" y1="16.2" y2="19.1" style="fill:none;stroke-linecap:round;stroke-linejoin:round;stroke-width:2;stroke:#bbc1d5"/>
    </g>
    <g id="mobile" transform="translate(0 -10.095)" style="stroke:#bbc1d5">
        <rect id="rect6243" x="192.6" y="99.1" width="29.4" height="43.72" rx="3" ry="3" style="fill:none;stroke-linecap:round;stroke-linejoin:round;stroke-width:2;stroke:#bbc1d5"/>
        <line id="line6245" x1="196.5" x2="218.1" y1="135" y2="135" style="fill:none;stroke-linecap:round;stroke-linejoin:round;stroke-width:2;stroke:#bbc1d5"/>
        <line id="line6247" x1="203.9" x2="209.5" y1="105.1" y2="105.1" style="fill:none;stroke-linecap:round;stroke-linejoin:round;stroke-width:2;stroke:#bbc1d5"/>
        <line id="line6249" x1="207.3" x2="207.3" y1="139" y2="139" style="fill:none;stroke-linecap:round;stroke-linejoin:round;stroke-width:2;stroke:#bbc1d5"/>
    </g>
    <g id="api" transform="translate(0 -10.095)" style="stroke:#bbc1d5">
        <path id="path6252" transform="translate(.1 .1)" d="m26.1 140.6 9.8-5.6a6.1 6.1 0 0 0 3.1 -5.3v-13.6a6.1 6.1 0 0 0 -3.1 -5.3l-12.3-7a7.4 7.4 0 0 0 -7.3 0l-12.3 7a6.1 6.1 0 0 0 -3.1 5.3v13.4a6.1 6.1 0 0 0 3.1 5.3l9.9 5.6" style="fill:none;stroke-linecap:round;stroke-linejoin:round;stroke-width:2;stroke:#bbc1d5"/>
        <line id="line6254" x1="20.1" x2="20.1" y1="119.4" y2="142.9" style="fill:none;stroke-linecap:round;stroke-linejoin:round;stroke-width:2;stroke:#bbc1d5"/>
        <polyline id="polyline6256" points="12.7 126.8 20.1 119.4 27.4 126.8" style="fill:none;stroke-linecap:round;stroke-linejoin:round;stroke-width:2;stroke:#bbc1d5"/>
        <line id="line6258" x1="20.1" x2="20.1" y1="147.1" y2="147.1" style="fill:none;stroke-linecap:round;stroke-linejoin:round;stroke-width:2.19;stroke:#bbc1d5"/>
    </g>
    <g id="check" transform="translate(0 -10.095)" style="stroke:#bbc1d5">
        <path id="path6261" transform="translate(.1 .1)" d="m83.2 18.3a29.8 29.8 0 1 0 -22.5 41.9l10.9 4 4-10.9a29.8 29.8 0 0 0 7.6 -35z" style="fill:none;stroke-linecap:round;stroke-linejoin:round;stroke-width:2;stroke:#bbc1d5"/>
        <line id="line6263" x1="56.5" x2="64.3" y1="27.1" y2="27.1" style="fill:none;stroke-linecap:round;stroke-linejoin:round;stroke-width:2;stroke:#bbc1d5"/>
        <path id="path6265" transform="translate(.1 .1)" d="m48 27.3 8.8-13.8a1.4 1.4 0 0 1 1.9 -0.4h0.1a3.5 3.5 0 0 1 1.2 4l-3.5 10" style="fill:none;stroke-linecap:round;stroke-linejoin:round;stroke-width:2;stroke:#bbc1d5"/>
        <rect id="rect6267" x="60.6" y="27.1" width="11.3" height="5.41" rx="2.5" ry="2.5" style="fill:none;stroke-linecap:round;stroke-linejoin:round;stroke-width:2;stroke:#bbc1d5"/>
        <rect id="rect6269" x="59.1" y="33" width="11.3" height="5.41" rx="2.5" ry="2.5" style="fill:none;stroke-linecap:round;stroke-linejoin:round;stroke-width:2;stroke:#bbc1d5"/>
        <rect id="rect6271" x="57.9" y="38.7" width="11.3" height="5.41" rx="2.5" ry="2.5" style="fill:none;stroke-linecap:round;stroke-linejoin:round;stroke-width:2;stroke:#bbc1d5"/>
        <path id="path6273" transform="translate(.1 .1)" d="m48 27.3h-6.5v13a3.7 3.7 0 0 0 3.7 3.7h13.9" style="fill:none;stroke-linecap:round;stroke-linejoin:round;stroke-width:2;stroke:#bbc1d5"/>
        <line id="line6275" x1="47.9" x2="48" y1="39.1" y2="27.4" style="fill:none;stroke-linecap:round;stroke-linejoin:round;stroke-width:2;stroke:#bbc1d5"/>
    </g>
    <polyline id="triangle" transform="translate(0 -10.095)" points="131.7 135 115.1 107.5 98.4 135 120.5 135" style="fill:none;stroke-linecap:round;stroke-linejoin:round;stroke-width:4;stroke:#e558bf"/>
    <path id="path6279" class="lamp3" d="m98.867 160.9c0-12.7-19.7-25.8-19.7-25.8-4.3-2.4-6.9-7-6.9-11.9v-30.5c0-4.9 2.6-9.4 6.9-11.9l27.6-15.7c5.1-2.9 11.4-2.9 16.5 0l27.6 15.7c4.3 2.4 6.9 7 6.9 11.9v30.5c0 4.9-2.6 9.4-6.9 11.9 0 0-19.7 12.4-19.7 25.8" style="fill-opacity:0;stroke-linecap:round;stroke-linejoin:round;stroke-width:4;stroke:#fbffff"/>
    <line id="line6281" class="st0" x1="107.47" x2="109.67" y1="79.406" y2="78.206" style="stroke:#fbffff"/>
    <line id="line6283" class="st0" x1="87.367" x2="98.267" y1="90.605" y2="84.506" style="stroke:#fbffff"/>
    <circle id="circle6285" cx="114.88" cy="61.334" r="5.1295" style="fill:#fdfeff;stroke:#fbffff"/>
    <circle id="circle6287" cx="157.84" cy="86.309" r="5.1295" style="fill:#fdfeff;stroke:#fbffff"/>
    <circle id="circle6289" cx="73.13" cy="86.722" r="5.1295" style="fill:#fdfeff;stroke:#fbffff"/>
    <circle id="circle6291" cx="157.43" cy="128.5" r="5.1295" style="fill:#fdfeff;stroke:#fbffff"/>
    <circle id="circle6293" cx="73.165" cy="129.13" r="5.1295" style="fill:#fdfeff;stroke:#fbffff"/>
</svg>
